<svg artist="Katerina Limpitsouni" role="img" source="https://undraw.co/" version="1.1" viewBox="0 0 396.64 396.64" xmlns="http://www.w3.org/2000/svg">
 <circle cx="198.32" cy="198.32" r="198.32" fill="#009c56" opacity=".2" stroke-width="3.1376" data-name="Ellipse 95"/>
 <circle cx="198.32" cy="198.32" r="159.69" fill="#009c56" stroke-width="3.1376" data-name="Ellipse 96"/>
 <path d="m151.08 209.39c3.1985 0 5.6178 2.6244 7.258 7.8731 3.2804 9.8414 5.6178 14.762 7.0119 14.762 1.066 0 2.1734-0.82037 3.3215-2.4603 23.045-36.905 44.368-66.757 63.969-89.556 5.0848-5.9048 13.163-8.8572 24.234-8.8572 2.6244 0 4.3877 0.24564 5.2898 0.73851 0.90227 0.49285 1.3526 1.107 1.3526 1.8451 0 1.1479-1.3526 3.4035-4.0595 6.766-31.656 38.053-61.016 78.239-88.08 120.56-1.8862 2.9524-5.7409 4.4286-11.564 4.4286-5.9048 0-9.3902-0.24564-10.456-0.73851-2.7885-1.2298-6.0689-7.5041-9.8414-18.822-4.2645-12.548-6.3969-20.421-6.3969-23.619 0-3.4445 2.8704-6.7658 8.6111-9.9643 3.5265-1.9683 6.643-2.9524 9.3493-2.9524z" fill="#fff" stroke-width="6.5464" style="white-space:pre" aria-label="✓"/>
</svg>
