<?xml version="1.0" encoding="UTF-8"?>
<svg width="57.805mm" height="5.9183mm" viewBox="0 0 57.805 5.9183" xmlns="http://www.w3.org/2000/svg">
 <g transform="translate(-76.556 -145.53)">
  <g transform="translate(-36.59 48.743)">
   <path transform="matrix(.26458 0 0 .26458 39.239 -7.7792)" d="m279.33 413.85h4.352v-4.5653h5.8453v-3.6267h-5.8667v-3.0507h6.784v-3.6907h-11.115zm13.065 0h10.837v-3.7973h-6.4853v-11.136h-4.352zm14.601 0h4.352v-4.8853l5.0773-10.027-4.8853-0.0427-2.3467 7.424-2.368-7.424-4.928 0.0427 5.0987 10.027zm10.868 0h11.584v-3.6053h-7.232v-2.2613h6.2933v-3.3067h-6.2933v-2.0907h6.848v-3.6693h-11.2zm13.684 0h4.3307v-4.6507h0.72533c0.064 0 0.40534 0.0213 0.46934 0 2.496 3.6907 4.8853 4.864 7.2533 4.864 0.42666 0 0.704-0.0427 0.91733-0.0853v-4.1173c-0.0853 0-0.27733 0.0213-0.36267 0.0213-0.93866 0-2.048-0.53334-3.2213-2.0267 1.856-0.448 3.072-1.8987 3.072-4.3947 0-3.2853-1.9627-4.736-6.8266-4.736-1.5147 0-3.6053 0.064-6.3573 0.192zm4.3307-7.488v-4.2453c1.088-0.064 1.3653-0.0853 2.1333-0.0853 1.7493 0 2.2613 0.61867 2.2613 2.0267 0 1.5573-0.512 2.368-2.816 2.368-0.49067 0-0.85334-0.0213-1.5787-0.064zm21.992 7.5093h5.184l4.6507-14.955-4.8-0.0213-2.432 11.328-2.496-11.328-4.8213 0.0213zm11.337-0.0213h11.584v-3.6053h-7.232v-2.2613h6.2933v-3.3067h-6.2933v-2.0907h6.848v-3.6693h-11.2zm13.684 0h4.3307v-4.6507h0.72533c0.064 0 0.40533 0.0213 0.46933 0 2.496 3.6907 4.8853 4.864 7.2533 4.864 0.42666 0 0.704-0.0427 0.91733-0.0853v-4.1173c-0.0853 0-0.27733 0.0213-0.36267 0.0213-0.93866 0-2.048-0.53334-3.2213-2.0267 1.856-0.448 3.072-1.8987 3.072-4.3947 0-3.2853-1.9627-4.736-6.8267-4.736-1.5147 0-3.6053 0.064-6.3573 0.192zm4.3307-7.488v-4.2453c1.088-0.064 1.3653-0.0853 2.1333-0.0853 1.7493 0 2.2613 0.61867 2.2613 2.0267 0 1.5573-0.512 2.368-2.816 2.368-0.49066 0-0.85333-0.0213-1.5787-0.064zm23.391-3.6267v-3.8187h-12.971v3.8187h4.3093v11.115h4.352v-11.115zm1.8653 11.115h11.584v-3.6053h-7.232v-2.2613h6.2933v-3.3067h-6.2933v-2.0907h6.848v-3.6693h-11.2zm13.684 0h4.3307v-14.933h-4.3307zm7.0493 0h10.837v-3.7973h-6.4853v-11.136h-4.352zm12.703 0h11.584v-3.6053h-7.232v-2.2613h6.2933v-3.3067h-6.2933v-2.0907h6.848v-3.6693h-11.2zm13.684 0h4.1813v-6.7627l4.5867 6.9547h3.904v-15.125h-4.1813v7.3173l-4.5653-7.3386h-3.9253z" fill="#617080" style="white-space:pre" aria-label="FLYER VERTEILEN"/>
   <g transform="matrix(.91974 0 0 .91974 14.098 8.1404)" stroke-width=".11204">
    <path d="m165.34 96.387s0.795 0.92478 1.9756 3.2126h3.2246s-1.1754-2.3066-2.0586-2.8165c-0.82135-0.47421-1.265-0.39602-3.1416-0.39602z" fill="#9fabb5"/>
    <path d="m165.34 102.81s0.795-0.92478 1.9756-3.2126h3.2246s-1.1754 2.3066-2.0586 2.8165c-0.82135 0.47421-1.265 0.39602-3.1416 0.39602z" fill="#617080"/>
   </g>
  </g>
 </g>
</svg>
